{
    "patcher": {
        "fileversion": 1,
        "appversion": {
            "major": 9,
            "minor": 1,
            "revision": 2,
            "architecture": "x64",
            "modernui": 1
        },
        "classnamespace": "box",
        "rect": [ 147.0, 100.0, 1000.0, 780.0 ],
        "boxes": [
            {
                "box": {
                    "id": "obj-25",
                    "maxclass": "newobj",
                    "numinlets": 1,
                    "numoutlets": 5,
                    "outlettype": [ "", "", "", "", "" ],
                    "patching_rect": [ 162.0, 400.0, 104.0, 22.0 ],
                    "saved_object_attributes": {
                        "legacyoutputorder": 0
                    },
                    "text": "regexp Cucumber"
                }
            },
            {
                "box": {
                    "id": "obj-18",
                    "maxclass": "message",
                    "numinlets": 2,
                    "numoutlets": 1,
                    "outlettype": [ "" ],
                    "patching_rect": [ 40.0, 493.0, 83.0, 22.0 ],
                    "text": "say cucumber"
                }
            },
            {
                "box": {
                    "fontname": "Arial",
                    "fontsize": 11.0,
                    "id": "obj-16",
                    "maxclass": "newobj",
                    "numinlets": 1,
                    "numoutlets": 1,
                    "outlettype": [ "" ],
                    "patching_rect": [ 40.0, 524.0, 105.0, 21.0 ],
                    "text": "prepend /command"
                }
            },
            {
                "box": {
                    "id": "obj-15",
                    "maxclass": "newobj",
                    "numinlets": 1,
                    "numoutlets": 2,
                    "outlettype": [ "", "" ],
                    "patching_rect": [ 40.0, 555.0, 66.0, 22.0 ],
                    "text": "spat5.shell"
                }
            },
            {
                "box": {
                    "id": "obj-12",
                    "maxclass": "button",
                    "numinlets": 1,
                    "numoutlets": 1,
                    "outlettype": [ "bang" ],
                    "parameter_enable": 0,
                    "patching_rect": [ 40.0, 440.0, 24.0, 24.0 ]
                }
            },
            {
                "box": {
                    "id": "obj-10",
                    "maxclass": "newobj",
                    "numinlets": 1,
                    "numoutlets": 5,
                    "outlettype": [ "", "", "", "", "" ],
                    "patching_rect": [ 40.0, 400.0, 101.0, 22.0 ],
                    "saved_object_attributes": {
                        "legacyoutputorder": 0
                    },
                    "text": "regexp cucumber"
                }
            },
            {
                "box": {
                    "id": "obj-9",
                    "maxclass": "newobj",
                    "numinlets": 2,
                    "numoutlets": 2,
                    "outlettype": [ "", "" ],
                    "patching_rect": [ 40.0, 363.0, 47.0, 22.0 ],
                    "text": "zl iter 1"
                }
            },
            {
                "box": {
                    "id": "obj-8",
                    "maxclass": "message",
                    "numinlets": 2,
                    "numoutlets": 1,
                    "outlettype": [ "" ],
                    "patching_rect": [ 121.0, 363.0, 113.0, 22.0 ],
                    "text": "(tapping)"
                }
            },
            {
                "box": {
                    "id": "obj-6",
                    "maxclass": "newobj",
                    "numinlets": 1,
                    "numoutlets": 1,
                    "outlettype": [ "" ],
                    "patching_rect": [ 40.0, 323.0, 71.0, 22.0 ],
                    "text": "fromsymbol"
                }
            },
            {
                "box": {
                    "id": "obj-5",
                    "maxclass": "message",
                    "numinlets": 2,
                    "numoutlets": 1,
                    "outlettype": [ "" ],
                    "patching_rect": [ 86.0, 227.0, 585.0, 22.0 ],
                    "presentation_linecount": 2,
                    "text": "(tapping)"
                }
            },
            {
                "box": {
                    "id": "obj-4",
                    "maxclass": "newobj",
                    "numinlets": 1,
                    "numoutlets": 2,
                    "outlettype": [ "", "" ],
                    "patching_rect": [ 40.0, 148.0, 122.0, 22.0 ],
                    "text": "OSC-route /transcript"
                }
            },
            {
                "box": {
                    "id": "obj-3",
                    "maxclass": "newobj",
                    "numinlets": 1,
                    "numoutlets": 1,
                    "outlettype": [ "" ],
                    "patching_rect": [ 40.0, 31.0, 97.0, 22.0 ],
                    "text": "udpreceive 7400"
                }
            }
        ],
        "lines": [
            {
                "patchline": {
                    "destination": [ "obj-12", 0 ],
                    "source": [ "obj-10", 2 ]
                }
            },
            {
                "patchline": {
                    "destination": [ "obj-18", 0 ],
                    "source": [ "obj-12", 0 ]
                }
            },
            {
                "patchline": {
                    "destination": [ "obj-15", 0 ],
                    "source": [ "obj-16", 0 ]
                }
            },
            {
                "patchline": {
                    "destination": [ "obj-16", 0 ],
                    "source": [ "obj-18", 0 ]
                }
            },
            {
                "patchline": {
                    "destination": [ "obj-12", 0 ],
                    "source": [ "obj-25", 2 ]
                }
            },
            {
                "patchline": {
                    "destination": [ "obj-4", 0 ],
                    "source": [ "obj-3", 0 ]
                }
            },
            {
                "patchline": {
                    "destination": [ "obj-5", 1 ],
                    "order": 0,
                    "source": [ "obj-4", 0 ]
                }
            },
            {
                "patchline": {
                    "destination": [ "obj-6", 0 ],
                    "order": 1,
                    "source": [ "obj-4", 0 ]
                }
            },
            {
                "patchline": {
                    "destination": [ "obj-8", 1 ],
                    "order": 0,
                    "source": [ "obj-6", 0 ]
                }
            },
            {
                "patchline": {
                    "destination": [ "obj-9", 0 ],
                    "order": 1,
                    "source": [ "obj-6", 0 ]
                }
            },
            {
                "patchline": {
                    "destination": [ "obj-10", 0 ],
                    "order": 1,
                    "source": [ "obj-9", 0 ]
                }
            },
            {
                "patchline": {
                    "destination": [ "obj-25", 0 ],
                    "order": 0,
                    "source": [ "obj-9", 0 ]
                }
            }
        ],
        "autosave": 0,
        "toolbaradditions": [ "browsegenjit", "browsegendsp", "Data Knot" ]
    }
}